# Blender v3.0.1 OBJ File: ''
# www.blender.org
mtllib 76847f18-9976-11ec-a63c-0cdd242fc94c.mtl
o Cube
v 1.000000 1.000000 -1.000000
v 1.000000 -1.000000 -1.000000
v 1.000000 1.000000 1.000000
v 1.000000 -1.000000 1.000000
v -1.000000 1.000000 -1.000000
v -1.000000 -1.000000 -1.000000
v -1.000000 1.000000 1.000000
v -1.000000 -1.000000 1.000000
vt 0.625000 0.500000
vt 0.875000 0.500000
vt 0.875000 0.750000
vt 0.625000 0.750000
vt 0.375000 0.750000
vt 0.625000 1.000000
vt 0.375000 1.000000
vt 0.375000 0.000000
vt 0.625000 0.000000
vt 0.625000 0.250000
vt 0.375000 0.250000
vt 0.125000 0.500000
vt 0.375000 0.500000
vt 0.125000 0.750000
vn 0.0000 1.0000 0.0000
vn 0.0000 0.0000 1.0000
vn -1.0000 0.0000 0.0000
vn 0.0000 -1.0000 0.0000
vn 1.0000 0.0000 0.0000
vn 0.0000 0.0000 -1.0000
usemtl Material
s off
f 1/1/1 5/2/1 7/3/1 3/4/1
f 4/5/2 3/4/2 7/6/2 8/7/2
f 8/8/3 7/9/3 5/10/3 6/11/3
f 6/12/4 2/13/4 4/5/4 8/14/4
f 2/13/5 1/1/5 3/4/5 4/5/5
f 6/11/6 5/10/6 1/1/6 2/13/6
o Cuerpo
v -2.880653 7.433096 -2.848699
v -2.880653 7.433095 2.912607
v -2.880653 13.194403 -2.848698
v -2.880653 18.955708 -2.848697
v -2.880653 13.194403 2.912608
v -2.880653 18.955708 2.912609
v 2.880653 7.433096 -2.848699
v 2.880653 7.433095 2.912607
v 2.880653 13.194403 -2.848698
v 2.880653 18.955708 -2.848697
v 2.880653 13.194403 2.912608
v 2.880653 18.955708 2.912609
vn 0.0000 0.0000 -1.0000
vn 0.0000 -0.0000 1.0000
vn -1.0000 0.0000 0.0000
vn 1.0000 0.0000 0.0000
vn 0.0000 -1.0000 -0.0000
vn 0.0000 1.0000 0.0000
usemtl Default_OBJ
s off
f 11//7 12//7 18//7 17//7
f 19//8 20//8 14//8 13//8
f 11//9 13//9 14//9 12//9
f 18//10 20//10 19//10 17//10
f 9//9 10//9 13//9 11//9
f 17//10 19//10 16//10 15//10
f 9//11 15//11 16//11 10//11
f 14//12 20//12 18//12 12//12
f 9//7 11//7 17//7 15//7
f 16//8 19//8 13//8 10//8
