# Blender v3.0.1 OBJ File: ''
# www.blender.org
mtllib 7f82c690-9976-11ec-949e-0cdd242fc94c.mtl
o Cube
v 1.000000 1.000000 -1.000000
v 1.000000 -1.000000 -1.000000
v 1.000000 1.000000 1.000000
v 1.000000 -1.000000 1.000000
v -1.000000 1.000000 -1.000000
v -1.000000 -1.000000 -1.000000
v -1.000000 1.000000 1.000000
v -1.000000 -1.000000 1.000000
vt 0.625000 0.500000
vt 0.875000 0.500000
vt 0.875000 0.750000
vt 0.625000 0.750000
vt 0.375000 0.750000
vt 0.625000 1.000000
vt 0.375000 1.000000
vt 0.375000 0.000000
vt 0.625000 0.000000
vt 0.625000 0.250000
vt 0.375000 0.250000
vt 0.125000 0.500000
vt 0.375000 0.500000
vt 0.125000 0.750000
vn 0.0000 1.0000 0.0000
vn 0.0000 0.0000 1.0000
vn -1.0000 0.0000 0.0000
vn 0.0000 -1.0000 0.0000
vn 1.0000 0.0000 0.0000
vn 0.0000 0.0000 -1.0000
usemtl Material
s off
f 1/1/1 5/2/1 7/3/1 3/4/1
f 4/5/2 3/4/2 7/6/2 8/7/2
f 8/8/3 7/9/3 5/10/3 6/11/3
f 6/12/4 2/13/4 4/5/4 8/14/4
f 2/13/5 1/1/5 3/4/5 4/5/5
f 6/11/6 5/10/6 1/1/6 2/13/6
o Cuerpo
v -2.160490 3.832280 -0.688210
v -0.720163 3.832280 -0.688210
v -2.160490 5.272607 -0.688210
v -2.160490 6.712933 -0.688209
v -0.720163 5.272607 -0.688210
v -0.720163 6.712933 -0.688209
v -2.160490 8.153259 -0.688209
v -2.160490 9.593586 -0.688209
v -0.720163 8.153259 -0.688209
v -0.720163 9.593586 -0.688209
v -2.160490 3.832280 0.752117
v -0.720163 3.832280 0.752117
v -2.160490 5.272607 0.752117
v -2.160490 6.712933 0.752117
v -0.720163 5.272607 0.752117
v -0.720163 6.712933 0.752117
v -2.160490 8.153259 0.752118
v -2.160490 9.593586 0.752118
v -0.720163 8.153259 0.752118
v -0.720163 9.593586 0.752118
v -3.600816 13.914565 -2.128535
v -3.600816 13.914565 -0.688208
v -3.600816 15.354893 -2.128535
v -3.600816 15.354893 -0.688208
v -2.160490 11.033913 -0.688209
v -2.160490 12.474239 -0.688208
v -0.720163 11.033913 -0.688209
v -0.720163 12.474239 -0.688208
v -2.160490 13.914565 -2.128535
v -2.160490 13.914565 -0.688208
v -2.160490 15.354893 -2.128535
v -2.160490 15.354893 -0.688208
v -0.720163 13.914565 -2.128535
v -0.720163 13.914565 -0.688208
v -0.720163 15.354893 -2.128535
v -3.600816 16.795218 -2.128535
v -3.600816 16.795218 -0.688208
v -2.160490 16.795218 -2.128535
v -2.160490 16.795218 -0.688208
v -0.720163 16.795218 -2.128535
v -0.720163 16.795218 -0.688208
v -0.720163 18.235544 -0.688208
v -0.720163 19.675871 -0.688207
v -0.720163 21.116198 -0.688207
v -2.160490 11.033913 0.752118
v -2.160490 12.474239 0.752118
v -0.720163 11.033913 0.752118
v -0.720163 12.474239 0.752118
v -2.160490 13.914565 0.752118
v -2.160490 15.354893 0.752119
v -0.720163 13.914565 0.752118
v -0.720163 15.354893 0.752119
v -2.160490 16.795218 0.752119
v -0.720163 16.795218 0.752119
v -0.720163 18.235544 0.752119
v -0.720163 19.675871 0.752119
v -0.720163 21.116198 0.752120
v 0.720163 3.832280 -0.688210
v 2.160490 3.832280 -0.688210
v 0.720163 5.272607 -0.688210
v 0.720163 6.712933 -0.688209
v 2.160490 5.272607 -0.688210
v 2.160490 6.712933 -0.688209
v 0.720163 8.153259 -0.688209
v 0.720163 9.593586 -0.688209
v 2.160490 8.153259 -0.688209
v 2.160490 9.593586 -0.688209
v 0.720163 3.832280 0.752117
v 2.160490 3.832280 0.752117
v 0.720163 5.272607 0.752117
v 0.720163 6.712933 0.752117
v 2.160490 5.272607 0.752117
v 2.160490 6.712933 0.752117
v 0.720163 8.153259 0.752118
v 0.720163 9.593586 0.752118
v 2.160490 8.153259 0.752118
v 2.160490 9.593586 0.752118
v 0.720163 11.033913 -0.688209
v 0.720163 12.474239 -0.688208
v 2.160490 11.033913 -0.688209
v 2.160490 12.474239 -0.688208
v 0.720163 13.914565 -2.128535
v 0.720163 13.914565 -0.688208
v 0.720163 15.354893 -2.128535
v 2.160490 13.914565 -2.128535
v 2.160490 13.914565 -0.688208
v 2.160490 15.354893 -2.128535
v 2.160490 15.354893 -0.688208
v 3.600816 13.914565 -2.128535
v 3.600816 13.914565 -0.688208
v 3.600816 15.354893 -2.128535
v 3.600816 15.354893 -0.688208
v 0.720163 16.795218 -2.128535
v 0.720163 16.795218 -0.688208
v 0.720163 18.235544 -0.688208
v 2.160490 16.795218 -2.128535
v 2.160490 16.795218 -0.688208
v 0.720163 19.675871 -0.688207
v 0.720163 21.116198 -0.688207
v 3.600816 16.795218 -2.128535
v 3.600816 16.795218 -0.688208
v 0.720163 11.033913 0.752118
v 0.720163 12.474239 0.752118
v 2.160490 11.033913 0.752118
v 2.160490 12.474239 0.752118
v 0.720163 13.914565 0.752118
v 0.720163 15.354893 0.752119
v 2.160490 13.914565 0.752118
v 2.160490 15.354893 0.752119
v 0.720163 16.795218 0.752119
v 0.720163 18.235544 0.752119
v 2.160490 16.795218 0.752119
v 0.720163 19.675871 0.752119
v 0.720163 21.116198 0.752120
vn 0.0000 0.0000 -1.0000
vn 0.0000 -0.0000 1.0000
vn -1.0000 0.0000 0.0000
vn 0.0000 -1.0000 0.0000
vn 0.0000 1.0000 0.0000
vn 1.0000 0.0000 0.0000
usemtl Default_OBJ
s off
f 11//7 12//7 14//7 13//7
f 15//7 16//7 18//7 17//7
f 12//7 15//7 17//7 14//7
f 9//7 11//7 13//7 10//7
f 23//8 24//8 22//8 21//8
f 27//8 28//8 26//8 25//8
f 24//8 27//8 25//8 22//8
f 20//8 23//8 21//8 19//8
f 29//9 30//9 32//9 31//9
f 33//7 34//7 36//7 35//7
f 37//10 41//10 42//10 38//10
f 37//7 39//7 43//7 41//7
f 29//10 37//10 38//10 30//10
f 29//7 31//7 39//7 37//7
f 38//8 40//8 32//8 30//8
f 34//7 38//7 42//7 36//7
f 47//11 49//11 48//11 46//11
f 45//11 47//11 46//11 44//11
f 31//9 32//9 45//9 44//9
f 39//7 46//7 48//7 43//7
f 31//7 44//7 46//7 39//7
f 40//8 47//8 45//8 32//8
f 55//8 56//8 54//8 53//8
f 59//8 60//8 58//8 57//8
f 56//8 59//8 57//8 54//8
f 60//8 62//8 61//8 58//8
f 68//7 69//7 71//7 70//7
f 72//7 73//7 75//7 74//7
f 69//7 72//7 74//7 71//7
f 66//7 68//7 70//7 67//7
f 80//8 81//8 79//8 78//8
f 84//8 85//8 83//8 82//8
f 81//8 84//8 82//8 79//8
f 77//8 80//8 78//8 76//8
f 86//7 87//7 89//7 88//7
f 90//10 93//10 94//10 91//10
f 90//7 92//7 95//7 93//7
f 99//12 100//12 98//12 97//12
f 93//10 97//10 98//10 94//10
f 93//7 95//7 99//7 97//7
f 98//8 100//8 96//8 94//8
f 87//7 91//7 94//7 89//7
f 102//11 105//11 104//11 101//11
f 105//11 109//11 108//11 104//11
f 92//7 101//7 104//7 95//7
f 108//12 109//12 100//12 99//12
f 95//7 104//7 108//7 99//7
f 100//8 109//8 105//8 96//8
f 112//8 113//8 111//8 110//8
f 116//8 117//8 115//8 114//8
f 113//8 116//8 114//8 111//8
f 117//8 120//8 118//8 115//8
f 35//7 36//7 87//7 86//7
f 41//10 90//10 91//10 42//10
f 41//7 43//7 92//7 90//7
f 36//7 42//7 91//7 87//7
f 49//11 102//11 101//11 48//11
f 49//7 50//7 103//7 102//7
f 51//7 52//7 107//7 106//7
f 50//7 51//7 106//7 103//7
f 43//7 48//7 101//7 92//7
f 110//8 111//8 56//8 55//8
f 114//8 115//8 60//8 59//8
f 111//8 114//8 59//8 56//8
f 118//8 119//8 63//8 62//8
f 121//8 122//8 65//8 64//8
f 119//8 121//8 64//8 63//8
f 115//8 118//8 62//8 60//8
f 16//7 33//7 35//7 18//7
f 73//7 86//7 88//7 75//7
f 28//8 55//8 53//8 26//8
f 85//8 112//8 110//8 83//8
f 9//10 10//10 20//10 19//10
f 11//9 21//9 22//9 12//9
f 14//12 24//12 23//12 13//12
f 15//9 25//9 26//9 16//9
f 18//12 28//12 27//12 17//12
f 12//9 22//9 25//9 15//9
f 17//12 27//12 24//12 14//12
f 9//9 19//9 21//9 11//9
f 13//12 23//12 20//12 10//12
f 33//9 53//9 54//9 34//9
f 38//9 57//9 58//9 40//9
f 34//9 54//9 57//9 38//9
f 49//9 62//9 63//9 50//9
f 61//11 62//11 49//11 47//11
f 51//9 64//9 65//9 52//9
f 50//9 63//9 64//9 51//9
f 40//9 58//9 61//9 47//9
f 66//10 67//10 77//10 76//10
f 68//9 78//9 79//9 69//9
f 71//12 81//12 80//12 70//12
f 72//9 82//9 83//9 73//9
f 75//12 85//12 84//12 74//12
f 69//9 79//9 82//9 72//9
f 74//12 84//12 81//12 71//12
f 66//9 76//9 78//9 68//9
f 70//12 80//12 77//12 67//12
f 89//12 113//12 112//12 88//12
f 96//12 117//12 116//12 94//12
f 94//12 116//12 113//12 89//12
f 103//12 119//12 118//12 102//12
f 118//11 120//11 105//11 102//11
f 107//12 122//12 121//12 106//12
f 106//12 121//12 119//12 103//12
f 105//12 120//12 117//12 96//12
f 16//9 26//9 53//9 33//9
f 88//12 112//12 85//12 75//12
f 18//10 73//10 83//10 28//10
f 65//11 122//11 107//11 52//11
f 18//7 35//7 86//7 73//7
f 83//8 110//8 55//8 28//8
