{
    "asset" : {
        "generator" : "Khronos glTF Blender I/O v1.7.33",
        "version" : "2.0"
    },
    "scene" : 0,
    "scenes" : [
        {
            "name" : "Scene",
            "nodes" : [
                0
            ]
        }
    ],
    "nodes" : [
        {
            "mesh" : 0,
            "name" : "Remeshed_Object",
            "scale" : [
                0.9762130975723267,
                1,
                1
            ],
            "translation" : [
                0,
                0.8924047350883484,
                0
            ]
        }
    ],
    "materials" : [
        {
            "doubleSided" : true,
            "name" : "MaterialBake",
            "pbrMetallicRoughness" : {
                "baseColorTexture" : {
                    "index" : 0
                },
                "metallicFactor" : 0,
                "roughnessFactor" : 0.5
            }
        }
    ],
    "meshes" : [
        {
            "name" : "Cube.002",
            "primitives" : [
                {
                    "attributes" : {
                        "POSITION" : 0,
                        "NORMAL" : 1,
                        "TEXCOORD_0" : 2
                    },
                    "indices" : 3,
                    "material" : 0
                }
            ]
        }
    ],
    "textures" : [
        {
            "sampler" : 0,
            "source" : 0
        }
    ],
    "images" : [
        {
            "bufferView" : 4,
            "mimeType" : "image/jpeg",
            "name" : "2806d47e-f7b9-11ec-83a7-107b44811e24"
        }
    ],
    "accessors" : [
        {
            "bufferView" : 0,
            "componentType" : 5126,
            "count" : 26380,
            "max" : [
                1.1401262283325195,
                1.0540201663970947,
                2.4800949096679688
            ],
            "min" : [
                -1.1401262283325195,
                -0.9288082122802734,
                -3.071824550628662
            ],
            "type" : "VEC3"
        },
        {
            "bufferView" : 1,
            "componentType" : 5126,
            "count" : 26380,
            "type" : "VEC3"
        },
        {
            "bufferView" : 2,
            "componentType" : 5126,
            "count" : 26380,
            "type" : "VEC2"
        },
        {
            "bufferView" : 3,
            "componentType" : 5123,
            "count" : 38988,
            "type" : "SCALAR"
        }
    ],
    "bufferViews" : [
        {
            "buffer" : 0,
            "byteLength" : 316560,
            "byteOffset" : 0
        },
        {
            "buffer" : 0,
            "byteLength" : 316560,
            "byteOffset" : 316560
        },
        {
            "buffer" : 0,
            "byteLength" : 211040,
            "byteOffset" : 633120
        },
        {
            "buffer" : 0,
            "byteLength" : 77976,
            "byteOffset" : 844160
        },
        {
            "buffer" : 0,
            "byteLength" : 1119927,
            "byteOffset" : 922136
        }
    ],
    "samplers" : [
        {
            "magFilter" : 9728,
            "minFilter" : 9984
        }
    ],
    "buffers" : [
        {
            "byteLength" : 2042064,
            "uri" : "data:application/octet-stream;base64,"
        }
    ]
}
