{
    "asset" : {
        "generator" : "Khronos glTF Blender I/O v1.7.33",
        "version" : "2.0"
    },
    "scene" : 0,
    "scenes" : [
        {
            "name" : "Scene",
            "nodes" : [
                0
            ]
        }
    ],
    "nodes" : [
        {
            "mesh" : 0,
            "name" : "Remeshed_Object",
            "scale" : [
                0.9762130975723267,
                1,
                1
            ],
            "translation" : [
                0,
                0.8924047350883484,
                0
            ]
        }
    ],
    "materials" : [
        {
            "doubleSided" : true,
            "name" : "MaterialBake",
            "pbrMetallicRoughness" : {
                "baseColorFactor" : [
                    0.800000011920929,
                    0.800000011920929,
                    0.800000011920929,
                    1
                ],
                "metallicFactor" : 0,
                "roughnessFactor" : 0.5
            }
        }
    ],
    "meshes" : [
        {
            "name" : "Cube.002",
            "primitives" : [
                {
                    "attributes" : {
                        "POSITION" : 0,
                        "NORMAL" : 1,
                        "TEXCOORD_0" : 2
                    },
                    "indices" : 3,
                    "material" : 0
                }
            ]
        }
    ],
    "accessors" : [
        {
            "bufferView" : 0,
            "componentType" : 5126,
            "count" : 60056,
            "max" : [
                1.1153411865234375,
                0.7318105697631836,
                2.50488018989563
            ],
            "min" : [
                -1.1153409481048584,
                -0.9040229320526123,
                -3.1461806297302246
            ],
            "type" : "VEC3"
        },
        {
            "bufferView" : 1,
            "componentType" : 5126,
            "count" : 60056,
            "type" : "VEC3"
        },
        {
            "bufferView" : 2,
            "componentType" : 5126,
            "count" : 60056,
            "type" : "VEC2"
        },
        {
            "bufferView" : 3,
            "componentType" : 5123,
            "count" : 163776,
            "type" : "SCALAR"
        }
    ],
    "bufferViews" : [
        {
            "buffer" : 0,
            "byteLength" : 720672,
            "byteOffset" : 0
        },
        {
            "buffer" : 0,
            "byteLength" : 720672,
            "byteOffset" : 720672
        },
        {
            "buffer" : 0,
            "byteLength" : 480448,
            "byteOffset" : 1441344
        },
        {
            "buffer" : 0,
            "byteLength" : 327552,
            "byteOffset" : 1921792
        }
    ],
    "buffers" : [
        {
            "byteLength" : 2249344,
            "uri" : "data:application/octet-stream;base64,"
        }
    ]
}
