{
    "asset" : {
        "generator" : "Khronos glTF Blender I/O v1.7.33",
        "version" : "2.0"
    },
    "scene" : 0,
    "scenes" : [
        {
            "name" : "Scene",
            "nodes" : [
                0
            ]
        }
    ],
    "nodes" : [
        {
            "mesh" : 0,
            "name" : "Remeshed_Object",
            "scale" : [
                0.9762130975723267,
                1,
                1
            ],
            "translation" : [
                0,
                0.8924047350883484,
                0
            ]
        }
    ],
    "materials" : [
        {
            "doubleSided" : true,
            "name" : "MaterialBake",
            "pbrMetallicRoughness" : {
                "baseColorTexture" : {
                    "index" : 0
                },
                "metallicFactor" : 0,
                "roughnessFactor" : 0.5
            }
        }
    ],
    "meshes" : [
        {
            "name" : "Cube.002",
            "primitives" : [
                {
                    "attributes" : {
                        "POSITION" : 0,
                        "NORMAL" : 1,
                        "TEXCOORD_0" : 2
                    },
                    "indices" : 3,
                    "material" : 0
                }
            ]
        }
    ],
    "textures" : [
        {
            "sampler" : 0,
            "source" : 0
        }
    ],
    "images" : [
        {
            "bufferView" : 4,
            "mimeType" : "image/jpeg",
            "name" : "92c3a3d6-fa9e-11ec-8e4a-107b44811e24"
        }
    ],
    "accessors" : [
        {
            "bufferView" : 0,
            "componentType" : 5126,
            "count" : 5545,
            "max" : [
                1.0905556678771973,
                0.6078836917877197,
                2.529665470123291
            ],
            "min" : [
                -1.0905556678771973,
                -0.9783790111541748,
                -3.02225399017334
            ],
            "type" : "VEC3"
        },
        {
            "bufferView" : 1,
            "componentType" : 5126,
            "count" : 5545,
            "type" : "VEC3"
        },
        {
            "bufferView" : 2,
            "componentType" : 5126,
            "count" : 5545,
            "type" : "VEC2"
        },
        {
            "bufferView" : 3,
            "componentType" : 5123,
            "count" : 8196,
            "type" : "SCALAR"
        }
    ],
    "bufferViews" : [
        {
            "buffer" : 0,
            "byteLength" : 66540,
            "byteOffset" : 0
        },
        {
            "buffer" : 0,
            "byteLength" : 66540,
            "byteOffset" : 66540
        },
        {
            "buffer" : 0,
            "byteLength" : 44360,
            "byteOffset" : 133080
        },
        {
            "buffer" : 0,
            "byteLength" : 16392,
            "byteOffset" : 177440
        },
        {
            "buffer" : 0,
            "byteLength" : 298111,
            "byteOffset" : 193832
        }
    ],
    "samplers" : [
        {
            "magFilter" : 9728,
            "minFilter" : 9984
        }
    ],
    "buffers" : [
        {
            "byteLength" : 491944,
            "uri" : "data:application/octet-stream;base64,"
        }
    ]
}
