{
    "asset" : {
        "generator" : "Khronos glTF Blender I/O v1.7.33",
        "version" : "2.0"
    },
    "scene" : 0,
    "scenes" : [
        {
            "name" : "Scene",
            "nodes" : [
                0
            ]
        }
    ],
    "nodes" : [
        {
            "mesh" : 0,
            "name" : "Remeshed_Object",
            "translation" : [
                0,
                1.2828013896942139,
                0
            ]
        }
    ],
    "materials" : [
        {
            "doubleSided" : true,
            "name" : "MaterialBake",
            "pbrMetallicRoughness" : {
                "baseColorTexture" : {
                    "index" : 0
                },
                "metallicFactor" : 0,
                "roughnessFactor" : 0.5
            }
        }
    ],
    "meshes" : [
        {
            "name" : "Cube.002",
            "primitives" : [
                {
                    "attributes" : {
                        "POSITION" : 0,
                        "NORMAL" : 1,
                        "TEXCOORD_0" : 2
                    },
                    "indices" : 3,
                    "material" : 0
                }
            ]
        }
    ],
    "textures" : [
        {
            "sampler" : 0,
            "source" : 0
        }
    ],
    "images" : [
        {
            "bufferView" : 4,
            "mimeType" : "image/jpeg",
            "name" : "c640e516-fb1d-11ec-a312-107b44811e24"
        }
    ],
    "accessors" : [
        {
            "bufferView" : 0,
            "componentType" : 5126,
            "count" : 15289,
            "max" : [
                1.1582109928131104,
                1.0200207233428955,
                2.523399591445923
            ],
            "min" : [
                -1.1582109928131104,
                -1.2964012622833252,
                -1.0121920108795166
            ],
            "type" : "VEC3"
        },
        {
            "bufferView" : 1,
            "componentType" : 5126,
            "count" : 15289,
            "type" : "VEC3"
        },
        {
            "bufferView" : 2,
            "componentType" : 5126,
            "count" : 15289,
            "type" : "VEC2"
        },
        {
            "bufferView" : 3,
            "componentType" : 5123,
            "count" : 21480,
            "type" : "SCALAR"
        }
    ],
    "bufferViews" : [
        {
            "buffer" : 0,
            "byteLength" : 183468,
            "byteOffset" : 0
        },
        {
            "buffer" : 0,
            "byteLength" : 183468,
            "byteOffset" : 183468
        },
        {
            "buffer" : 0,
            "byteLength" : 122312,
            "byteOffset" : 366936
        },
        {
            "buffer" : 0,
            "byteLength" : 42960,
            "byteOffset" : 489248
        },
        {
            "buffer" : 0,
            "byteLength" : 826764,
            "byteOffset" : 532208
        }
    ],
    "samplers" : [
        {
            "magFilter" : 9728,
            "minFilter" : 9984
        }
    ],
    "buffers" : [
        {
            "byteLength" : 1358972,
            "uri" : "data:application/octet-stream;base64,"
        }
    ]
}
