{
    "asset" : {
        "generator" : "Khronos glTF Blender I/O v1.7.33",
        "version" : "2.0"
    },
    "scene" : 0,
    "scenes" : [
        {
            "name" : "Scene",
            "nodes" : [
                0
            ]
        }
    ],
    "nodes" : [
        {
            "mesh" : 0,
            "name" : "Remeshed_Object",
            "translation" : [
                0,
                1.2828013896942139,
                0
            ]
        }
    ],
    "materials" : [
        {
            "doubleSided" : true,
            "name" : "MaterialBake",
            "pbrMetallicRoughness" : {
                "baseColorTexture" : {
                    "index" : 0
                },
                "metallicFactor" : 0,
                "roughnessFactor" : 0.5
            }
        }
    ],
    "meshes" : [
        {
            "name" : "Cube.002",
            "primitives" : [
                {
                    "attributes" : {
                        "POSITION" : 0,
                        "NORMAL" : 1,
                        "TEXCOORD_0" : 2
                    },
                    "indices" : 3,
                    "material" : 0
                }
            ]
        }
    ],
    "textures" : [
        {
            "sampler" : 0,
            "source" : 0
        }
    ],
    "images" : [
        {
            "bufferView" : 4,
            "mimeType" : "image/jpeg",
            "name" : "fa180d36-fa81-11ec-8578-107b44811e24"
        }
    ],
    "accessors" : [
        {
            "bufferView" : 0,
            "componentType" : 5126,
            "count" : 28,
            "max" : [
                0.9753355979919434,
                0.8371453285217285,
                1.7309393882751465
            ],
            "min" : [
                -0.9753355979919434,
                -1.1135258674621582,
                -0.21973180770874023
            ],
            "type" : "VEC3"
        },
        {
            "bufferView" : 1,
            "componentType" : 5126,
            "count" : 28,
            "type" : "VEC3"
        },
        {
            "bufferView" : 2,
            "componentType" : 5126,
            "count" : 28,
            "type" : "VEC2"
        },
        {
            "bufferView" : 3,
            "componentType" : 5123,
            "count" : 36,
            "type" : "SCALAR"
        }
    ],
    "bufferViews" : [
        {
            "buffer" : 0,
            "byteLength" : 336,
            "byteOffset" : 0
        },
        {
            "buffer" : 0,
            "byteLength" : 336,
            "byteOffset" : 336
        },
        {
            "buffer" : 0,
            "byteLength" : 224,
            "byteOffset" : 672
        },
        {
            "buffer" : 0,
            "byteLength" : 72,
            "byteOffset" : 896
        },
        {
            "buffer" : 0,
            "byteLength" : 858,
            "byteOffset" : 968
        }
    ],
    "samplers" : [
        {
            "magFilter" : 9728,
            "minFilter" : 9984
        }
    ],
    "buffers" : [
        {
            "byteLength" : 1828,
            "uri" : "data:application/octet-stream;base64,"
        }
    ]
}
